<?xml version="1.0" encoding="utf-8"?>
<!-- Generator: Adobe Illustrator 24.3.2, SVG Export Plug-In . SVG Version: 6.00 Build 0)  -->
<svg version="1.1" id="Layer_1" xmlns="http://www.w3.org/2000/svg" xmlns:xlink="http://www.w3.org/1999/xlink" x="0px" y="0px"
	 viewBox="0 0 226.8 70.9" style="enable-background:new 0 0 226.8 70.9;" xml:space="preserve">
<style type="text/css">
	.st0{fill:url(#SVGID_1_);}
	.st1{fill:#03267F;}
</style>
<g>
	<g>
		<g id="Layer_1-2_34_">
			
				<radialGradient id="SVGID_1_" cx="6.2288" cy="38.3488" r="71.8478" gradientTransform="matrix(1 0 0 -1 0 73.8268)" gradientUnits="userSpaceOnUse">
				<stop  offset="0" style="stop-color:#A4E03D"/>
				<stop  offset="0.5" style="stop-color:#00CC66"/>
				<stop  offset="1" style="stop-color:#008461"/>
			</radialGradient>
			<path class="st0" d="M46.3,29c0.9-3.7,1.3-7.4,1.2-11.2l0-0.1c6.5-0.7,13.8-1.5,18-4.4h0c0.6,3.7,1.2,9.8-6.1,20.1
				c-7.5,10.4-19.1,16.1-28.7,19.1v0c2.3-1.8,4.4-3.9,6.4-6.1C41.7,41.2,44.7,35.3,46.3,29z M43.7,18.2L43.7,18.2
				c-9,0.9-15.3,3.8-19.3,8.8C20,32.4,18.5,40.7,19.8,52c0.1,1.1,0.2,1.9,0.3,2.5l0.1,0C25,52.2,43.8,41.5,43.7,18.2z M68.3,25
				c-1.4,3.8-3.3,7.4-5.7,10.7c-7.6,10.5-18.8,16.2-27,19.2c-2.6,1-5.1,1.7-7.2,2.3v0c6.4,0.3,12.3-0.3,17.5-1.8
				c5.9-1.7,10.7-4.6,14.5-8.5C65.9,41.2,68.7,33.5,68.3,25L68.3,25z"/>
			<path class="st1" d="M93.7,33.9C92.4,33,89.8,32,87.1,32c-2.8,0-4.6,1.2-4.6,3c0,1.6,1.5,2.4,3.9,2.7l2.4,0.3
				c4.3,0.6,6.9,2.4,6.9,5.8c0,3.9-3.5,6.4-9,6.4c-2.5,0-5.9-0.6-8.6-2.6l1.6-2.6c1.5,1.2,3.5,2.2,6.9,2.2c3.3,0,5.4-1.1,5.4-3.1
				c0-1.5-1.3-2.4-4.1-2.8l-2.4-0.3c-4.5-0.6-6.7-2.6-6.7-5.7c0-3.9,3.2-6.2,8.2-6.2c3.2,0,6.1,0.8,8.1,2.2L93.7,33.9z"/>
			<path class="st1" d="M117,41.2c0,6.1-4.4,8.9-9.3,8.9c-4.9,0-9.3-2.8-9.3-8.9V29.4h3.5v11.5c0,4.1,2.5,6,5.8,6
				c3.3,0,5.8-1.8,5.8-6V29.4h3.5L117,41.2z"/>
			<path class="st1" d="M137.7,31.9l-12.5,14.6h12.7v3.2h-17.3v-2.5l12.7-14.6h-12.3v-3.2h16.8V31.9z"/>
			<path class="st1" d="M160.3,49.7h-3.5V47c-1.6,1.9-4,3.1-7.2,3.1c-5.7,0-10.2-4.4-10.2-10.6s4.4-10.6,10.2-10.6
				c3.2,0,5.6,1.2,7.2,3.2v-2.8h3.5V49.7z M143.1,39.5c0,4,2.8,7.3,7,7.3c4.1,0,7-3.1,7-7.3s-2.9-7.3-7-7.3
				C145.8,32.2,143.1,35.5,143.1,39.5z"/>
			<path class="st1" d="M183.7,37.1v12.6h-3.5V38.2c0-3.7-2.1-5.9-5.6-5.9c-3.3,0-6,2.2-6,6v11.4h-3.5V29.4h3.5V32
				c1.7-2.3,4.3-3.1,6.6-3.1C180.3,28.9,183.7,32.2,183.7,37.1z"/>
			<path class="st1" d="M208.3,39.5c0,6-4.6,10.6-10.8,10.6c-6.2,0-10.7-4.6-10.7-10.6s4.6-10.6,10.7-10.6
				C203.7,28.9,208.3,33.5,208.3,39.5z M190.4,39.5c0,4.3,3.1,7.3,7.2,7.3c4.1,0,7.2-3.1,7.2-7.3s-3.1-7.3-7.2-7.3
				C193.5,32.2,190.4,35.3,190.4,39.5z"/>
		</g>
	</g>
</g>
</svg>
